# xmcd CD database file
#
# Track frame offsets:
#	150
#	6284
#	21023
#	43491
#	65030
#	84543
#	107696
#	126377
#	137154
#	154243
#	171963
#
# Disc length: 2562 seconds
#
# Revision: 1
# Processed by: cddbd v1.5PL3 Copyright (c) Steve Scherf et al.
# Submitted via: CDex 1.51
#
DISCID=9c0a000b
DTITLE=Francesco Baccini - Nostra Signora degli Autogrill
DYEAR=1999
DGENRE=Italiana
TTITLE0=Preghierina
TTITLE1=Mio fratello
TTITLE2=Quand'e' che mi dici si
TTITLE3=La fretta e l'amore
TTITLE4=Tu che prima o poi cadrai...
TTITLE5=Ballata di un ragazzo qualnque
TTITLE6=Devo andare via
TTITLE7=Fratelli di Blues
TTITLE8=Il primo omino clonato
TTITLE9=Troppa birra nei bar
TTITLE10=Lunatika
EXTD=YEAR: 1999
EXTT0=
EXTT1=
EXTT2=
EXTT3=
EXTT4=
EXTT5=
EXTT6=
EXTT7=
EXTT8=
EXTT9=
EXTT10=
PLAYORDER=
